Coordinates
version=1
nRows=9
nColumns=63
inDegrees=yes

Units are S.I. units (second, meters, Newtons, ...)
If the header above contains a line with 'inDegrees', this indicates whether rotational values are in degrees (yes) or radians (no).

endheader
time	pelvis_tilt	pelvis_list	pelvis_rotation	pelvis_tx	pelvis_ty	pelvis_tz	hip_flexion_r	hip_adduction_r	hip_rotation_r	knee_angle_r	knee_angle_r_beta	ankle_angle_r	subtalar_angle_r	mtp_angle_r	hip_flexion_l	hip_adduction_l	hip_rotation_l	knee_angle_l	knee_angle_l_beta	ankle_angle_l	subtalar_angle_l	mtp_angle_l	L5_S1_Flex_Ext	L5_S1_Lat_Bending	L5_S1_axial_rotation	L4_L5_Flex_Ext	L4_L5_Lat_Bending	L4_L5_axial_rotation	L3_L4_Flex_Ext	L3_L4_Lat_Bending	L3_L4_axial_rotation	L2_L3_Flex_Ext	L2_L3_Lat_Bending	L2_L3_axial_rotation	L1_L2_Flex_Ext	L1_L2_Lat_Bending	L1_L2_axial_rotation	L1_T12_Flex_Ext	L1_T12_Lat_Bending	L1_T12_axial_rotation	Abs_r3	Abs_r2	Abs_r1	Abs_t1	Abs_t2	neck_flexion	neck_bending	neck_rotation	arm_flex_r	arm_add_r	arm_rot_r	elbow_flex_r	pro_sup_r	wrist_flex_r	wrist_dev_r	arm_flex_l	arm_add_l	arm_rot_l	elbow_flex_l	pro_sup_l	wrist_flex_l	wrist_dev_l
      1.59574468	      0.24325240	    -20.36920580	     97.77702959	      0.21959404	      0.99957884	      0.51889008	     18.64735808	     -0.18309012	    -10.99796678	     16.89371766	      0.29485100	     28.94625167	     -1.95898278	      0.00000000	     21.68888563	      1.96375187	      5.12750697	     20.15951821	      0.35184997	     28.50858617	     -7.12971943	      0.00000000	     -0.40426008	     -1.19481871	     -0.98698088	     -0.75075139	     -1.58910888	     -1.04866719	     -0.66415888	     -2.90508220	     -1.04866719	     -0.46202884	     -2.90508220	     -0.86360827	     -0.37539591	     -2.43647431	     -0.80192197	     -0.23099421	     -1.85077418	     -0.74023566	     -2.88758929	    -13.51602817	     -5.48929158	      0.00000000	      0.00000000	     16.70910650	     10.33492726	    -32.49251539	     95.29490735	    -68.90115743	     17.91404260	    130.32739994	      8.44964913	      0.55914291	     31.28187848	      3.52955415	    -17.60681737	     31.75442822	     34.08720835	     88.05082099	    -15.91115938	     -9.43912962
      1.61702128	      0.30186491	    -20.39018240	     97.87067533	      0.21995635	      0.99954986	      0.51882149	     18.62786108	     -0.14785489	    -11.06560119	     16.87735156	      0.29456535	     28.79084264	     -2.00481956	      0.00000000	     21.70149257	      1.91107585	      5.25411327	     20.19478192	      0.35246544	     28.45426192	     -7.17222250	      0.00000000	     -0.40514044	     -1.20295144	     -0.97090584	     -0.75238632	     -1.59992541	     -1.03158745	     -0.66560523	     -2.92485613	     -1.03158745	     -0.46303501	     -2.92485613	     -0.84954261	     -0.37621342	     -2.45305857	     -0.78886099	     -0.23149725	     -1.86337178	     -0.72817938	     -2.89387767	    -13.60802727	     -5.39988699	      0.00000000	      0.00000000	     16.83869798	     10.80758774	    -32.56424641	     95.50344393	    -68.52119094	     18.64660140	    129.95104576	      8.86633435	      0.16037659	     31.47631701	      3.53561850	    -17.71653833	     31.73678053	     34.18933466	     88.04967729	    -15.96393257	     -9.37685234
      1.63829787	      0.51307688	    -20.27473182	     98.22462746	      0.21937793	      0.99918729	      0.51963284	     18.56466025	     -0.02752209	    -11.00029681	     16.94447665	      0.29573691	     28.80132024	     -2.28334672	      0.00000000	     21.70833778	      1.84688544	      5.56560794	     20.39200960	      0.35590771	     28.36420065	     -7.69482402	      0.00000000	     -0.44152135	     -1.15694789	     -1.08262408	     -0.81994930	     -1.53874070	     -1.15028808	     -0.72537542	     -2.81300311	     -1.15028808	     -0.50461475	     -2.81300311	     -0.94729607	     -0.40999672	     -2.35924814	     -0.87963206	     -0.25228530	     -1.79211229	     -0.81196806	     -3.15374284	    -13.08762595	     -6.02123032	      0.00000000	      0.00000000	     17.32332629	     11.37127281	    -30.35379270	     98.48522639	    -67.53181704	     21.94865860	    129.51110035	     10.26060281	     -2.80530396	     32.19348471	      3.26875762	    -17.59065246	     31.10835387	     34.66853865	     88.01638565	    -16.36644300	     -9.10039707
      1.65957447	      0.97095564	    -20.21112081	     98.70819251	      0.21883234	      0.99871025	      0.52031383	     18.60405078	      0.31024115	    -11.13164628	     17.00442854	      0.29678327	     28.79477994	     -2.50616722	      0.00000000	     21.84719994	      1.55252185	      5.95441834	     20.69743555	      0.36123840	     28.33308962	     -8.08242548	      0.00000000	     -0.46168754	     -1.09004266	     -1.18236163	     -0.85739994	     -1.44975674	     -1.25625923	     -0.75850646	     -2.65032972	     -1.25625923	     -0.52766269	     -2.65032972	     -1.03456643	     -0.42872305	     -2.22281499	     -0.96066882	     -0.26380826	     -1.68847608	     -0.88677122	     -3.29778795	    -12.33078056	     -6.57594067	      0.00000000	      0.00000000	     17.03549817	     11.25228605	    -29.30011312	    100.66026991	    -66.72298695	     24.61689018	    129.03365584	      8.19753589	     -5.47657285	     32.47257678	      3.08691489	    -17.32294888	     30.47827050	     34.80910731	     88.11955249	    -16.21821007	     -9.27800763
      1.68085106	      1.05354406	    -20.10135246	     98.75491939	      0.21925662	      0.99858346	      0.52035876	     18.57674346	      0.41239047	    -11.12396279	     17.07809802	      0.29806904	     28.95913879	     -2.38966280	      0.00000000	     21.66883449	      1.40863305	      5.77849423	     20.65613320	      0.36051754	     28.25327391	     -8.08114155	      0.00000000	     -0.47113584	     -1.07534181	     -1.22888304	     -0.87494637	     -1.43020461	     -1.30568823	     -0.77402907	     -2.61458607	     -1.30568823	     -0.53846115	     -2.61458607	     -1.07527266	     -0.43749674	     -2.19283702	     -0.99846747	     -0.26920702	     -1.66570446	     -0.92166228	     -3.36527619	    -12.16448161	     -6.83467880	      0.00000000	      0.00000000	     16.35375484	     11.32254727	    -28.43822740	    100.97624907	    -65.76366498	     25.47916189	    128.87801379	      3.90448049	     -8.84822617	     32.62949397	      2.96960484	    -17.44628220	     30.61692234	     34.93726685	     88.18402681	    -16.28537751	     -9.32225458
      1.70212766	      1.03385090	    -19.90258605	     98.63250628	      0.22002515	      0.99855107	      0.52050385	     18.49959584	      0.51388035	    -10.78266180	     17.21975334	      0.30054139	     29.16490113	     -2.53041733	      0.00000000	     21.37938867	      1.26771380	      5.30396885	     20.60365682	      0.35960165	     28.18596504	     -7.89112237	      0.00000000	     -0.48518284	     -1.06817699	     -1.29237468	     -0.90103305	     -1.42067540	     -1.37314810	     -0.79710688	     -2.59716555	     -1.37314810	     -0.55451546	     -2.59716555	     -1.13082785	     -0.45054078	     -2.17822653	     -1.05005443	     -0.27723347	     -1.65460616	     -0.96928101	     -3.46561249	    -12.08343180	     -7.18780029	      0.00000000	      0.00000000	     15.72323591	     11.39110002	    -27.29769842	    100.77449670	    -64.40967242	     25.64896086	    128.42530309	      3.28429629	     -9.69808585	     32.69291203	      2.71879248	    -17.59591151	     30.53627572	     35.08508677	     88.22352144	    -16.46887774	     -9.42798918
      1.72340426	      0.98721674	    -19.73230959	     98.46627486	      0.22065837	      0.99837574	      0.52096970	     18.48669464	      0.49571018	    -10.97200056	     17.48527957	      0.30517570	     29.56547662	     -1.93495650	      0.00000000	     21.17460023	      1.17727309	      4.87280060	     20.64828268	      0.36038052	     28.23532579	     -7.63436045	      0.00000000	     -0.49279960	     -1.05608065	     -1.37090465	     -0.91517814	     -1.40458726	     -1.45658619	     -0.80962047	     -2.56775449	     -1.45658619	     -0.56322067	     -2.56775449	     -1.19954157	     -0.45761371	     -2.15355966	     -1.11386003	     -0.28158569	     -1.63586893	     -1.02817849	     -3.52001828	    -11.94659552	     -7.62456039	      0.00000000	      0.00000000	     15.23552501	     11.32171088	    -26.02132386	    100.66679353	    -62.88453556	     25.73173606	    127.88089900	      3.42460331	     -9.55184938	     32.65569204	      2.45416068	    -17.67960872	     30.41687662	     35.12063927	     88.29077182	    -16.71083230	     -9.71125042
      1.74468085	      0.88804256	    -19.59447810	     98.19397510	      0.22141151	      0.99819238	      0.52161607	     18.50209934	      0.48157845	    -10.90621729	     17.76060609	      0.30998105	     29.77399986	     -1.69326923	      0.00000000	     21.05871923	      1.17812378	      4.68100841	     20.80392643	      0.36309701	     28.26262330	     -7.81646649	      0.00000000	     -0.49950754	     -1.04757498	     -1.42931319	     -0.92763546	     -1.39327472	     -1.51864527	     -0.82064094	     -2.54707380	     -1.51864527	     -0.57088717	     -2.54707380	     -1.25064904	     -0.46384270	     -2.13621490	     -1.16131697	     -0.28541861	     -1.62269364	     -1.07198489	     -3.56793243	    -11.85037768	     -7.94941118	      0.00000000	      0.00000000	     14.88020598	     10.88278438	    -25.20482568	    100.66319197	    -61.47066540	     25.72244300	    127.52162540	      3.63439892	     -9.40415347	     32.44079221	      2.32450916	    -17.80778119	     30.59297125	     35.07795064	     88.30297005	    -16.75849036	     -9.91440515
      1.76595745	      0.72426037	    -19.52444142	     97.89187206	      0.22213891	      0.99809935	      0.52273949	     18.57512122	      0.36827571	    -10.94795856	     18.01092271	      0.31434990	     29.93052969	     -1.27558993	      0.00000000	     21.08067173	      1.28327435	      4.62762359	     21.02226205	      0.36690769	     28.30061620	     -8.10898222	      0.00000000	     -0.50546637	     -1.04111929	     -1.53182513	     -0.93870160	     -1.38468866	     -1.62756420	     -0.83043070	     -2.53137745	     -1.62756420	     -0.57769751	     -2.53137745	     -1.34034699	     -0.46937607	     -2.12305046	     -1.24460792	     -0.28882348	     -1.61269379	     -1.14886885	     -3.61049574	    -11.77734968	     -8.51955182	      0.00000000	      0.00000000	     14.44054165	     10.41077234	    -24.10366316	    100.74641357	    -59.82814960	     25.62439145	    127.27733663	      3.84046344	     -9.05076869	     32.44497381	      2.05935711	    -17.88505591	     30.28238848	     35.06088129	     88.26536566	    -16.98548283	    -10.27645807
